<svg width="253" height="697" viewBox="0 0 253 697" fill="none" xmlns="http://www.w3.org/2000/svg">
<g clip-path="url(#clip0)">
<rect width="253" height="697" fill="white"/>
<path fill-rule="evenodd" clip-rule="evenodd" d="M520.008 580.819C545.168 617.852 565.426 654.862 586.797 694.203C614.562 745.316 667.931 788.503 664.366 846.561C660.725 905.845 616.941 958.106 568.483 992.45C522.009 1025.39 462.313 1029.65 405.352 1030.13C354.15 1030.57 302.347 1022.32 258.99 995.081C218.583 969.694 198.758 924.431 173.089 884.204C147.578 844.226 122.299 805.9 109.189 760.325C92.1551 701.106 57.5538 635.494 85.7947 580.726C113.848 526.322 189.058 521.769 245.006 496.936C300.118 472.475 353.814 418.573 411.488 436.165C470.336 454.115 485.433 529.929 520.008 580.819Z" stroke="#F4F4F4" stroke-width="5"/>
<path fill-rule="evenodd" clip-rule="evenodd" d="M561.326 583.434C586.486 620.467 606.743 657.477 628.114 696.818C655.88 747.93 709.248 791.118 705.683 849.176C702.043 908.459 658.259 960.72 609.8 995.065C563.327 1028 503.63 1032.26 446.67 1032.75C395.468 1033.18 343.664 1024.94 300.308 997.695C259.901 972.309 240.076 927.046 214.406 886.819C188.896 846.841 163.616 808.515 150.507 762.939C133.473 703.721 98.8717 638.108 127.113 583.341C155.166 528.937 230.376 524.384 286.324 499.551C341.436 475.089 395.132 421.187 452.806 438.779C511.654 456.73 526.751 532.543 561.326 583.434Z" stroke="#F4F4F4" stroke-width="5"/>
<path fill-rule="evenodd" clip-rule="evenodd" d="M602.331 581.818C627.49 618.85 647.748 655.86 669.119 695.201C696.885 746.314 750.253 789.501 746.688 847.559C743.048 906.843 699.264 959.104 650.805 993.448C604.331 1026.39 544.635 1030.65 487.675 1031.13C436.473 1031.57 384.669 1023.32 341.312 996.079C300.906 970.692 281.081 925.43 255.411 885.202C229.901 845.225 204.621 806.898 191.512 761.323C174.478 702.104 139.876 636.492 168.117 581.725C196.171 527.321 271.381 522.767 327.328 497.935C382.44 473.473 436.137 419.571 493.81 437.163C552.658 455.113 567.756 530.927 602.331 581.818Z" stroke="#F4F4F4" stroke-width="5"/>
<path fill-rule="evenodd" clip-rule="evenodd" d="M631.844 578.215C657.003 615.248 677.261 652.258 698.632 691.599C726.398 742.712 779.766 785.899 776.201 843.957C772.561 903.241 728.777 955.502 680.318 989.846C633.844 1022.78 574.148 1027.04 517.188 1027.53C465.986 1027.96 414.182 1019.72 370.825 992.477C330.419 967.09 310.594 921.827 284.924 881.6C259.414 841.622 234.134 803.296 221.025 757.721C203.991 698.502 169.389 632.89 197.63 578.122C225.684 523.718 300.894 519.165 356.842 494.332C411.954 469.871 465.65 415.969 523.323 433.561C582.171 451.511 597.269 527.325 631.844 578.215Z" stroke="#F4F4F4" stroke-width="5"/>
<path fill-rule="evenodd" clip-rule="evenodd" d="M673.606 577.252C698.765 614.285 719.023 651.295 740.394 690.636C768.16 741.748 821.528 784.936 817.963 842.994C814.323 902.277 770.539 954.538 722.08 988.883C675.606 1021.82 615.91 1026.08 558.95 1026.56C507.748 1027 455.944 1018.75 412.587 991.513C372.181 966.127 352.356 920.864 326.686 880.637C301.176 840.659 275.896 802.333 262.787 756.757C245.753 697.538 211.151 631.926 239.392 577.159C267.446 522.755 342.656 518.202 398.604 493.369C453.715 468.907 507.412 415.005 565.085 432.597C623.933 450.547 639.031 526.361 673.606 577.252Z" stroke="#F4F4F4" stroke-width="5"/>
<path fill-rule="evenodd" clip-rule="evenodd" d="M539.1 580.116C564.26 617.148 584.518 654.158 605.889 693.499C633.654 744.612 687.023 787.799 683.458 845.857C679.817 905.141 636.033 957.402 587.575 991.746C541.101 1024.68 481.405 1028.94 424.444 1029.43C373.242 1029.86 321.439 1021.62 278.082 994.377C237.675 968.99 217.85 923.727 192.181 883.5C166.67 843.523 141.391 805.196 128.281 759.621C111.247 700.402 76.6458 634.79 104.887 580.022C132.94 525.619 208.15 521.065 264.098 496.233C319.21 471.771 372.906 417.869 430.58 435.461C489.428 453.411 504.525 529.225 539.1 580.116Z" stroke="#F4F4F4" stroke-width="5"/>
<path fill-rule="evenodd" clip-rule="evenodd" d="M580.418 582.73C605.578 619.763 625.835 656.773 647.206 696.114C674.972 747.227 728.341 790.414 724.775 848.472C721.135 907.755 677.351 960.016 628.892 994.361C582.419 1027.3 522.723 1031.56 465.762 1032.04C414.56 1032.48 362.757 1024.23 319.4 996.992C278.993 971.605 259.168 926.342 233.498 886.115C207.988 846.137 182.708 807.811 169.599 762.235C152.565 703.017 117.964 637.404 146.205 582.637C174.258 528.233 249.468 523.68 305.416 498.847C360.528 474.385 414.224 420.484 471.898 438.075C530.746 456.026 545.843 531.839 580.418 582.73Z" stroke="#F4F4F4" stroke-width="5"/>
<path fill-rule="evenodd" clip-rule="evenodd" d="M621.423 581.114C646.582 618.147 666.84 655.157 688.211 694.498C715.977 745.61 769.345 788.797 765.78 846.855C762.14 906.139 718.356 958.4 669.897 992.744C623.423 1025.68 563.727 1029.94 506.767 1030.43C455.565 1030.86 403.761 1022.62 360.404 995.375C319.998 969.988 300.173 924.726 274.503 884.498C248.993 844.521 223.713 806.194 210.604 760.619C193.57 701.4 158.968 635.788 187.209 581.021C215.263 526.617 290.473 522.064 346.42 497.231C401.532 472.769 455.229 418.867 512.902 436.459C571.75 454.409 586.848 530.223 621.423 581.114Z" stroke="#F4F4F4" stroke-width="5"/>
<path fill-rule="evenodd" clip-rule="evenodd" d="M650.936 577.512C676.096 614.544 696.353 651.554 717.724 690.895C745.49 742.008 798.858 785.195 795.293 843.253C791.653 902.537 747.869 954.798 699.41 989.142C652.936 1022.08 593.24 1026.34 536.28 1026.82C485.078 1027.26 433.274 1019.01 389.917 991.773C349.511 966.386 329.686 921.124 304.016 880.896C278.506 840.919 253.226 802.592 240.117 757.017C223.083 697.798 188.482 632.186 216.722 577.418C244.776 523.015 319.986 518.461 375.934 493.629C431.046 469.167 484.742 415.265 542.415 432.857C601.263 450.807 616.361 526.621 650.936 577.512Z" stroke="#F4F4F4" stroke-width="5"/>
<path fill-rule="evenodd" clip-rule="evenodd" d="M692.698 576.548C717.857 613.581 738.115 650.591 759.486 689.932C787.252 741.045 840.62 784.232 837.055 842.29C833.415 901.573 789.631 953.834 741.172 988.179C694.698 1021.12 635.002 1025.38 578.042 1025.86C526.84 1026.3 475.036 1018.05 431.679 990.81C391.273 965.423 371.448 920.16 345.778 879.933C320.268 839.955 294.988 801.629 281.879 756.053C264.845 696.835 230.243 631.222 258.484 576.455C286.538 522.051 361.748 517.498 417.696 492.665C472.808 468.203 526.504 414.301 584.177 431.893C643.025 449.844 658.123 525.657 692.698 576.548Z" stroke="#F4F4F4" stroke-width="5"/>
</g>
<defs>
<clipPath id="clip0">
<rect width="253" height="697" fill="white"/>
</clipPath>
</defs>
</svg>
