<?xml version="1.0" encoding="utf-8"?>
<!-- Generator: Adobe Illustrator 25.2.1, SVG Export Plug-In . SVG Version: 6.00 Build 0)  -->
<svg version="1.1" id="Layer_1" xmlns="http://www.w3.org/2000/svg" xmlns:xlink="http://www.w3.org/1999/xlink" x="0px" y="0px"
	 viewBox="0 0 500 141" style="enable-background:new 0 0 500 141;" xml:space="preserve">
<style type="text/css">
	.st0{fill:#1A5BFF;}
	.st1{fill:#FE3255;}
</style>
<g id="_x23_006ec7ff">
	<path class="st0" d="M35.6,0L35.6,0c0.1,13.6,0,27.1,0,40.6c8.1,0,16.2,0,24.4,0C73.4,40,85.7,51.1,88,63.9
		c0.4,7.4,0.1,14.9,0.2,22.3c6.2,0,12.3,0,18.5,0c0.3-10.2-1.4-21,2.9-30.6c2.9-6.8,9.1-11.8,16.1-13.7c8.6-2.6,17.7-1.4,26.6-1.7
		c4.6-11.1,14.3-19.9,26-23c0,23,0,46,0,69c7.1,0,14.2,0,21.3,0c0-6.2,0-12.3,0-18.5c-6,0-11.9,0-17.9,0.1
		c0-12.1,7.6-23.1,17.9-29.1c0-7.4,0-14.7,0-22.1c10.8,4,20.5,11.6,25.4,22.2c16,0,32,0,48.1,0c-6.1,11.9-15,23.1-27.4,28.8
		c-6.8,0.4-13.7,0.1-20.6,0.2c0,16.7,0,33.4,0.2,50.1c0,4.9,7,6.6,10,3.3c1.1-1.1,1.5-2.7,1.4-4.2c0-10.3,0-20.6,0-30.8
		c10.4,0,20.9,0,31.4,0c0.4-9.9-1.4-20.3,2.6-29.8c2.4-6.3,7.6-11.4,13.9-13.7c9.6-3.8,20.1-2.2,30.1-2.6c4.5-10.9,13.8-19.3,25-23
		c0,23,0,46,0,69c6.3,0,12.7,0,19,0c0-23.1,0-46.2,0-69.3c8.3,1.9,16.2,6.2,21.4,13c2.1,2.6,3.9,5.5,5.7,8.4
		c16.4-1.6,33.4,2.8,46.8,12.6c0-4.1,0-8.2,0-12.4c11.2-0.1,23.2-0.3,33,5.9c7.1,4.3,11.4,12.4,11.7,20.6c0.2,6.9,0,13.9,0.1,20.8
		c7.5,8.8,15,17.7,22.6,26.4c-16.6,0-33.2,0-49.9,0c0-10.1,0-20.1,0-30.2c0-4-1-8.3-4.3-10.9c-3.7-3-8.6-3.1-13.2-3.2
		c0,14.8,0,29.6,0,44.4c-9.5,0-19,0-28.5,0c0-10.4,0-20.8,0-31.2c0-3.7-1.1-7.8-4.2-10.1c-4.2-3.1-9.6-3.1-14.6-3.2
		c0,14.8,0,29.7,0,44.5c-42,0-84,0-126,0c-0.1,4.9,0.2,9.9-0.1,14.8c-0.6,7.3-7,13.3-14.2,13.9h-30.2c-7.1-0.3-13.6-5.8-14.8-12.9
		c-0.6-5.3-0.1-10.6-0.2-15.9c-48.8,0-97.5,0-146.2,0c0-11.8,0-23.6,0-35.3c0-3.3-0.6-7.1-3.6-9.1c-4.2-2.7-9.5-2.5-14.4-2.8
		c-0.1,15.9,0,31.8,0,47.7c-11.9,0-23.8,0-35.6,0V29.8C11.8,19.8,23.8,10.1,35.6,0 M135.5,74.6c-2.5,3.3-2.2,7.7-2.1,11.6
		c6.3,0,12.6,0,18.9,0c0-6.2,0-12.3,0-18.5C146.2,67.7,139.2,69.2,135.5,74.6 M298.2,74.3c-2.7,3.4-2.5,7.8-2.4,11.9
		c6.3,0,12.6,0,19,0c0-6.1,0-12.3,0-18.4C308.8,67.7,302,69.1,298.2,74.3z"/>
</g>
<g id="_x23_fe3255fe">
	<path class="st1" d="M0,114.2c65.2-0.1,130.4,0,195.7-0.1c0,2.5,0,5.1,0,7.6c-65.2,0-130.5,0-195.7,0V114.2z"/>
	<path class="st1" d="M262.9,114.2c79,0,158.1,0,237.1,0v7.5c-79,0.1-158.1,0-237.1,0.1C262.9,119.2,262.9,116.7,262.9,114.2z"/>
</g>
</svg>
