<svg width="317" height="253" viewBox="0 0 317 253" fill="none" xmlns="http://www.w3.org/2000/svg">
<path opacity="0.6" d="M184.184 35.3507C163.861 34.644 144.49 28.079 126.021 20.8977C107.552 13.7165 89.2463 5.75846 69.3996 1.9532C56.6393 -0.496999 42.0461 -0.841606 31.7667 6.00377C21.8725 12.5892 18.6766 23.9583 16.9576 34.5067C15.6646 42.4443 14.9145 50.7966 18.449 58.229C20.9094 63.3864 25.2757 67.7232 28.2965 72.6645C38.8035 89.8568 31.3756 111.059 19.9871 127.86C14.646 135.745 8.44975 143.247 4.32864 151.632C0.207531 160.016 -1.70125 169.621 1.90618 178.172C5.4815 186.641 13.9981 193.013 23.2268 197.49C41.9703 206.576 64.0556 209.175 85.5922 210.664C133.265 213.926 181.195 212.513 228.993 211.099C246.683 210.574 264.452 210.045 281.853 207.303C291.516 205.781 301.495 203.369 308.512 197.546C317.416 190.151 319.626 177.635 313.657 168.363C303.646 152.814 275.969 148.951 268.97 132.264C265.12 123.079 269.075 112.846 274.673 104.327C286.677 86.0544 306.804 70.0215 307.864 49.132C308.593 34.7842 298.918 20.4188 283.957 13.6289C268.278 6.50608 246.534 7.40556 234.968 19.1776C223.057 31.306 202.124 35.9728 184.184 35.3507Z" fill="#E0E0E0"/>
<path d="M154.456 252.373C225.338 252.373 282.798 219.199 282.798 178.277C282.798 137.355 225.338 104.182 154.456 104.182C83.5753 104.182 26.1147 137.355 26.1147 178.277C26.1147 219.199 83.5753 252.373 154.456 252.373Z" fill="#F5F5F5"/>
<path d="M231.498 190.471L183.571 218.107C183.2 218.293 182.791 218.389 182.376 218.389C181.962 218.389 181.553 218.293 181.182 218.107L80.4948 159.883C79.8351 159.5 79.8351 158.885 80.4948 158.51L128.431 130.873C128.799 130.684 129.207 130.585 129.621 130.585C130.035 130.585 130.443 130.684 130.811 130.873L231.552 189.089C232.158 189.481 232.158 190.096 231.498 190.471Z" fill="#E0E0E0"/>
<path d="M133.147 65.8644L91.4688 89.7568V160.436L133.147 136.543V65.8644Z" fill="#1A5BFF"/>
<path opacity="0.35" d="M133.147 65.8644L91.4688 89.7568V160.436L133.147 136.543V65.8644Z" fill="black"/>
<path d="M92.6549 90.9339L133.147 67.8617C134.984 70.0013 137.706 71.4872 141.313 72.3192L101.133 95.3379C101.133 95.3379 98.842 94.8031 92.6549 90.9339Z" fill="#F5F5F5"/>
<path d="M104.565 95.2132C103.501 95.7535 102.325 96.0351 101.133 96.0351C99.9397 96.0351 98.7637 95.7535 97.7003 95.2132L91.6826 91.7363C89.7837 90.6487 89.7837 88.8746 91.6826 87.778L131.649 65L133.147 65.8915L93.7509 88.4556C92.6098 89.1064 92.6187 90.1762 93.7509 90.827L99.3496 94.0186C99.9872 94.3441 100.693 94.5139 101.409 94.5139C102.125 94.5139 102.831 94.3441 103.468 94.0186L142.846 71.4902L144.54 72.4708L104.565 95.2132Z" fill="#1A5BFF"/>
<path opacity="0.25" d="M104.565 95.2132C103.501 95.7535 102.325 96.0351 101.133 96.0351C99.9397 96.0351 98.7637 95.7535 97.7003 95.2132L91.6826 91.7363C89.7837 90.6487 89.7837 88.8746 91.6826 87.778L131.649 65L133.147 65.8915L93.7509 88.4556C92.6098 89.1064 92.6187 90.1762 93.7509 90.827L99.3496 94.0186C99.9872 94.3441 100.693 94.5139 101.409 94.5139C102.125 94.5139 102.831 94.3441 103.468 94.0186L142.846 71.4902L144.54 72.4708L104.565 95.2132Z" fill="black"/>
<path d="M144.532 72.4441V143.123L104.565 165.892C103.501 166.428 102.325 166.707 101.133 166.707C99.9409 166.707 98.7654 166.428 97.7007 165.892L91.6741 162.415C91.2838 162.24 90.9469 161.965 90.6978 161.617C90.4488 161.269 90.2965 160.862 90.2566 160.436V89.7572C90.2965 90.183 90.4488 90.5906 90.6978 90.9383C90.9469 91.286 91.2838 91.5614 91.6741 91.7363L97.7007 95.2221C98.7654 95.7583 99.9409 96.0375 101.133 96.0375C102.325 96.0375 103.501 95.7583 104.565 95.2221L144.532 72.4441Z" fill="#1A5BFF"/>
<path opacity="0.05" d="M144.532 72.4441V143.123L104.565 165.892C103.501 166.428 102.325 166.707 101.133 166.707C99.9409 166.707 98.7654 166.428 97.7007 165.892L91.6741 162.415C91.2838 162.24 90.9469 161.965 90.6978 161.617C90.4488 161.269 90.2965 160.862 90.2566 160.436V89.7572C90.2965 90.183 90.4488 90.5906 90.6978 90.9383C90.9469 91.286 91.2838 91.5614 91.6741 91.7363L97.7007 95.2221C98.7654 95.7583 99.9409 96.0375 101.133 96.0375C102.325 96.0375 103.501 95.7583 104.565 95.2221L144.532 72.4441Z" fill="black"/>
<path d="M101.133 96.0423C99.9378 96.065 98.7565 95.7827 97.7007 95.2221L91.6741 91.7363C91.2838 91.5614 90.9469 91.286 90.6978 90.9383C90.4488 90.5906 90.2965 90.183 90.2566 89.7571V160.436C90.2965 160.862 90.4488 161.269 90.6978 161.617C90.9469 161.965 91.2838 162.24 91.6741 162.415L97.7007 165.892C98.7565 166.453 99.9378 166.735 101.133 166.712V96.0423Z" fill="#1A5BFF"/>
<path opacity="0.2" d="M101.133 96.0423C99.9378 96.065 98.7565 95.7827 97.7007 95.2221L91.6741 91.7363C91.2838 91.5614 90.9469 91.286 90.6978 90.9383C90.4488 90.5906 90.2965 90.183 90.2566 89.7571V160.436C90.2965 160.862 90.4488 161.269 90.6978 161.617C90.9469 161.965 91.2838 162.24 91.6741 162.415L97.7007 165.892C98.7565 166.453 99.9378 166.735 101.133 166.712V96.0423Z" fill="black"/>
<path d="M143.293 81.9119L108.381 102.203V169.021L143.293 148.739V81.9119Z" fill="#1A5BFF"/>
<path opacity="0.55" d="M143.293 81.9119L108.381 102.203V169.021L143.293 148.739V81.9119Z" fill="white"/>
<path d="M109.505 103.308L143.293 83.8019C145.353 86.0035 148.06 87.4927 151.022 88.0544L117.519 107.462C117.519 107.462 115.353 106.972 109.505 103.308Z" fill="#F5F5F5"/>
<path d="M120.764 107.364C119.759 107.878 118.647 108.145 117.519 108.145C116.391 108.145 115.279 107.878 114.274 107.364L108.586 104.075C106.803 103.041 106.803 101.4 108.586 100.33L141.884 81.1005L143.293 81.9118L110.539 100.945C110.304 101.025 110.099 101.176 109.955 101.377C109.81 101.579 109.732 101.821 109.732 102.069C109.732 102.317 109.81 102.559 109.955 102.76C110.099 102.962 110.304 103.113 110.539 103.192L115.825 106.205C116.428 106.513 117.096 106.673 117.773 106.673C118.45 106.673 119.118 106.513 119.721 106.205L152.457 87.2163L154.062 88.1078L120.764 107.364Z" fill="#1A5BFF"/>
<path opacity="0.8" d="M120.764 107.364C119.759 107.878 118.647 108.145 117.519 108.145C116.391 108.145 115.279 107.878 114.274 107.364L108.586 104.075C106.803 103.041 106.803 101.4 108.586 100.33L141.884 81.1005L143.293 81.9118L110.539 100.945C110.304 101.025 110.099 101.176 109.955 101.377C109.81 101.579 109.732 101.821 109.732 102.069C109.732 102.317 109.81 102.559 109.955 102.76C110.099 102.962 110.304 103.113 110.539 103.192L115.825 106.205C116.428 106.513 117.096 106.673 117.773 106.673C118.45 106.673 119.118 106.513 119.721 106.205L152.457 87.2163L154.062 88.1078L120.764 107.364Z" fill="white"/>
<path d="M154.062 88.1346V154.953L120.764 174.183C119.759 174.696 118.647 174.964 117.519 174.964C116.391 174.964 115.279 174.696 114.274 174.183L108.577 170.893C108.207 170.729 107.888 170.469 107.653 170.14C107.418 169.81 107.275 169.424 107.24 169.021V102.158C107.277 102.561 107.421 102.946 107.655 103.275C107.89 103.604 108.209 103.864 108.577 104.03L114.274 107.32C115.279 107.833 116.391 108.101 117.519 108.101C118.647 108.101 119.759 107.833 120.764 107.32L154.062 88.1346Z" fill="#1A5BFF"/>
<path opacity="0.7" d="M154.062 88.1346V154.953L120.764 174.183C119.759 174.696 118.647 174.964 117.519 174.964C116.391 174.964 115.279 174.696 114.274 174.183L108.577 170.893C108.207 170.729 107.888 170.469 107.653 170.14C107.418 169.81 107.275 169.424 107.24 169.021V102.158C107.277 102.561 107.421 102.946 107.655 103.275C107.89 103.604 108.209 103.864 108.577 104.03L114.274 107.32C115.279 107.833 116.391 108.101 117.519 108.101C118.647 108.101 119.759 107.833 120.764 107.32L154.062 88.1346Z" fill="white"/>
<path d="M117.519 108.14C116.389 108.163 115.272 107.896 114.274 107.364L108.577 104.075C108.209 103.909 107.89 103.648 107.655 103.319C107.421 102.991 107.277 102.605 107.24 102.203V169.066C107.275 169.469 107.418 169.855 107.653 170.184C107.888 170.513 108.207 170.774 108.577 170.938L114.274 174.227C115.272 174.759 116.389 175.026 117.519 175.003V108.14Z" fill="#1A5BFF"/>
<path opacity="0.55" d="M117.519 108.14C116.389 108.163 115.272 107.896 114.274 107.364L108.577 104.075C108.209 103.909 107.89 103.648 107.655 103.319C107.421 102.991 107.277 102.605 107.24 102.203V169.066C107.275 169.469 107.418 169.855 107.653 170.184C107.888 170.513 108.207 170.774 108.577 170.938L114.274 174.227C115.272 174.759 116.389 175.026 117.519 175.003V108.14Z" fill="white"/>
<path d="M187.066 93.7332L187.44 98.8148L142.508 122.921L141.492 119.961L187.066 93.7332Z" fill="#1A5BFF"/>
<path opacity="0.35" d="M187.066 93.7332L187.44 98.8148L142.508 122.921L141.492 119.961L187.066 93.7332Z" fill="black"/>
<path d="M142.089 121.138L185.612 96.0156L193.181 100.384L148.802 126.345L142.089 121.138Z" fill="#F5F5F5"/>
<path d="M156.977 123.652L162.389 167.122C162.358 167.681 162.196 168.225 161.915 168.71C161.635 169.195 161.244 169.607 160.775 169.913L135.528 184.524C135.124 184.744 134.676 184.872 134.217 184.899L148.802 127.967C149.261 127.945 149.709 127.82 150.113 127.602L151.896 126.55L156.977 123.652Z" fill="#1A5BFF"/>
<path opacity="0.35" d="M156.977 123.652L162.389 167.122C162.358 167.681 162.196 168.225 161.915 168.71C161.635 169.195 161.244 169.607 160.775 169.913L135.528 184.524C135.124 184.744 134.676 184.872 134.217 184.899L148.802 127.967C149.261 127.945 149.709 127.82 150.113 127.602L151.896 126.55L156.977 123.652Z" fill="black"/>
<path d="M146.885 127.619L142.383 123.768L139.076 120.933C138.737 120.398 138.345 119.997 138.559 119.551L124.179 176.002V176.055C123.965 176.501 123.902 177.499 124.517 177.838L132.318 184.515C132.908 184.831 133.579 184.962 134.244 184.89L148.802 127.967C148.143 128.044 147.476 127.923 146.885 127.619V127.619Z" fill="#1A5BFF"/>
<path opacity="0.25" d="M146.885 127.619L142.383 123.768L139.076 120.933C138.737 120.398 138.345 119.997 138.559 119.551L124.179 176.002V176.055C123.965 176.501 123.902 177.499 124.517 177.838L132.318 184.515C132.908 184.831 133.579 184.962 134.244 184.89L148.802 127.967C148.143 128.044 147.476 127.923 146.885 127.619V127.619Z" fill="black"/>
<path d="M139.076 119.052C138.184 119.569 138.407 120.14 139.076 120.915L146.885 127.602C147.385 127.855 147.938 127.988 148.499 127.988C149.06 127.988 149.612 127.855 150.112 127.602L156.977 123.634C157.869 123.126 158.029 122.377 157.325 121.976C156.863 121.785 156.363 121.704 155.865 121.74C155.367 121.776 154.884 121.927 154.454 122.181L149.034 125.293C148.866 125.376 148.681 125.419 148.494 125.419C148.307 125.419 148.123 125.376 147.955 125.293L142.249 120.336C141.955 120.166 141.955 119.89 142.249 119.712L187.065 93.6976L184.917 92.4584L139.076 119.052Z" fill="#1A5BFF"/>
<path opacity="0.15" d="M139.076 119.052C138.184 119.569 138.407 120.14 139.076 120.915L146.885 127.602C147.385 127.855 147.938 127.988 148.499 127.988C149.06 127.988 149.612 127.855 150.112 127.602L156.977 123.634C157.869 123.126 158.029 122.377 157.325 121.976C156.863 121.785 156.363 121.704 155.865 121.74C155.367 121.776 154.884 121.927 154.454 122.181L149.034 125.293C148.866 125.376 148.681 125.419 148.494 125.419C148.307 125.419 148.123 125.376 147.955 125.293L142.249 120.336C141.955 120.166 141.955 119.89 142.249 119.712L187.065 93.6976L184.917 92.4584L139.076 119.052Z" fill="black"/>
<path d="M195.749 94.5L154.936 118.214V196.31L195.749 172.605V94.5Z" fill="#455A64"/>
<path d="M156.273 119.507L195.766 96.7109C197.799 99.0882 200.809 100.743 204.797 101.677L165.616 124.401C165.616 124.401 163.093 123.786 156.273 119.507Z" fill="#F5F5F5"/>
<path d="M169.414 124.241C168.238 124.838 166.939 125.149 165.62 125.149C164.302 125.149 163.002 124.838 161.827 124.241L155.176 120.407C153.081 119.195 153.081 117.233 155.176 116.021L194.099 93.5461L195.749 94.5L157.467 116.743C156.21 117.465 156.21 118.642 157.467 119.364L163.646 122.93C164.352 123.286 165.132 123.471 165.923 123.471C166.715 123.471 167.495 123.286 168.201 122.93L206.474 100.732L208.337 101.81L169.414 124.241Z" fill="#263238"/>
<path d="M208.337 101.766V179.871L169.414 202.337C168.239 202.934 166.939 203.245 165.62 203.245C164.302 203.245 163.002 202.934 161.827 202.337L155.176 198.503C154.744 198.309 154.371 198.004 154.095 197.619C153.82 197.234 153.651 196.782 153.607 196.31V118.214C153.653 118.684 153.822 119.134 154.097 119.518C154.373 119.901 154.745 120.205 155.176 120.398L161.827 124.25C163.004 124.843 164.303 125.152 165.62 125.152C166.938 125.152 168.237 124.843 169.414 124.25L208.337 101.766Z" fill="#455A64"/>
<path d="M165.616 125.159C164.298 125.191 162.993 124.884 161.827 124.267L155.176 120.416C154.745 120.223 154.373 119.919 154.097 119.536C153.822 119.152 153.653 118.702 153.607 118.232V196.328C153.651 196.8 153.82 197.251 154.095 197.637C154.371 198.022 154.744 198.327 155.176 198.521L161.827 202.355C162.993 202.971 164.298 203.278 165.616 203.246V125.159Z" fill="#37474F"/>
<path d="M212.438 104.137L171.625 127.851V205.956L212.438 182.242V104.137Z" fill="#1A5BFF"/>
<path opacity="0.35" d="M212.438 104.137L171.625 127.851V205.956L212.438 182.242V104.137Z" fill="black"/>
<path d="M172.944 129.144L212.438 106.348C214.47 108.725 217.481 110.381 221.469 111.314L182.305 134.021C182.305 134.021 179.773 133.423 172.944 129.144Z" fill="#EBEBEB"/>
<path d="M172.944 129.144L212.438 106.348C214.47 108.725 217.481 110.381 221.469 111.314L182.305 134.021C182.305 134.021 179.773 133.423 172.944 129.144Z" fill="#F5F5F5"/>
<path d="M186.103 133.878C184.927 134.475 183.628 134.787 182.309 134.787C180.991 134.787 179.691 134.475 178.516 133.878L171.865 130.044C169.77 128.832 169.77 126.871 171.865 125.658L210.788 103.192L212.438 104.137L174.156 126.425C172.899 127.147 172.899 128.324 174.156 129.046L180.335 132.612C181.041 132.968 181.821 133.153 182.612 133.153C183.403 133.153 184.184 132.968 184.89 132.612L223.136 110.333L225.008 111.412L186.103 133.878Z" fill="#1A5BFF"/>
<path opacity="0.25" d="M186.103 133.878C184.927 134.475 183.628 134.787 182.309 134.787C180.991 134.787 179.691 134.475 178.516 133.878L171.865 130.044C169.77 128.832 169.77 126.871 171.865 125.658L210.788 103.192L212.438 104.137L174.156 126.425C172.899 127.147 172.899 128.324 174.156 129.046L180.335 132.612C181.041 132.968 181.821 133.153 182.612 133.153C183.403 133.153 184.184 132.968 184.89 132.612L223.136 110.333L225.008 111.412L186.103 133.878Z" fill="black"/>
<path d="M225.017 111.403V189.481L186.103 211.956C184.926 212.549 183.627 212.858 182.309 212.858C180.992 212.858 179.692 212.549 178.516 211.956L171.865 208.114C171.433 207.92 171.06 207.615 170.784 207.229C170.508 206.844 170.34 206.392 170.296 205.921V127.825C170.342 128.295 170.511 128.745 170.786 129.128C171.062 129.512 171.434 129.816 171.865 130.009L178.516 133.86C179.691 134.457 180.991 134.769 182.309 134.769C183.628 134.769 184.927 134.457 186.103 133.86L225.017 111.403Z" fill="#1A5BFF"/>
<path opacity="0.15" d="M182.305 134.796C180.986 134.828 179.682 134.521 178.516 133.905L171.865 130.053C171.434 129.86 171.062 129.556 170.786 129.173C170.511 128.789 170.342 128.339 170.296 127.869V205.965C170.34 206.437 170.508 206.889 170.784 207.274C171.06 207.659 171.433 207.964 171.865 208.158L178.516 212.001C179.683 212.613 180.987 212.92 182.305 212.892V134.796Z" fill="black"/>
<path d="M127.008 44.4559V40.8676C126.98 40.6601 126.9 40.4631 126.774 40.2956C126.648 40.128 126.482 39.9956 126.29 39.9108L104.594 27.466C104.076 27.2053 103.505 27.0695 102.925 27.0695C102.345 27.0695 101.774 27.2053 101.256 27.466L38.9099 63.2482C38.7181 63.3325 38.5513 63.4649 38.4256 63.6325C38.2999 63.8001 38.2195 63.9973 38.1923 64.205V67.7933C38.2195 68.001 38.2999 68.1982 38.4256 68.3658C38.5513 68.5334 38.7181 68.6658 38.9099 68.7501L60.6062 81.2004C61.1239 81.4611 61.6955 81.5969 62.2751 81.5969C62.8548 81.5969 63.4263 81.4611 63.944 81.2004L126.296 45.4127C126.488 45.3284 126.654 45.196 126.78 45.0284C126.906 44.8608 126.986 44.6636 127.013 44.4559H127.008Z" fill="#F0F0F0"/>
<path d="M38.9099 65.1619L60.6061 77.6066C61.1238 77.8674 61.6954 78.0032 62.2751 78.0032C62.8547 78.0032 63.4263 77.8674 63.944 77.6066L126.29 41.8245C127.208 41.2682 127.208 40.4393 126.29 39.9108L104.594 27.466C104.076 27.2053 103.505 27.0695 102.925 27.0695C102.345 27.0695 101.774 27.2053 101.256 27.466L38.9099 63.2482C37.992 63.7767 37.992 64.6334 38.9099 65.1619Z" fill="#FAFAFA"/>
<path d="M62.264 78.0072V81.5954C61.6836 81.6035 61.1102 81.4678 60.5951 81.2004L38.8988 68.7557C38.7082 68.6696 38.5425 68.5367 38.417 68.3694C38.2916 68.2021 38.2104 68.0058 38.1812 67.7988V64.205C38.1943 64.0604 38.242 63.9212 38.3202 63.7989C38.0699 64.2606 38.259 64.7947 38.8765 65.1619L60.5728 77.6066C61.0913 77.8871 61.6748 78.0253 62.264 78.0072V78.0072Z" fill="#E0E0E0"/>
<path d="M65.0956 50.8535L83.4762 61.3289L113.834 43.9051L95.4592 33.4297L65.0956 50.8535Z" fill="#E0E0E0"/>
<path d="M83.6821 60.5334L65.958 50.3584C66.4174 48.8558 66.3842 47.2457 65.8634 45.7632L83.4763 55.827C83.4763 55.827 83.8101 56.934 83.6821 60.5334Z" fill="white"/>
<path d="M82.5695 54.3917C83.0642 54.7116 83.4762 55.144 83.7721 55.6535C84.0679 56.163 84.2391 56.7352 84.2718 57.3234V60.7503C84.2718 61.8296 83.5096 62.2635 82.5695 61.7239L65.1012 51.7102V50.8646L82.3469 60.6947C82.9033 61.0174 83.365 60.7559 83.365 60.105V56.9285C83.347 56.5757 83.2453 56.2322 83.0683 55.9265C82.8912 55.6208 82.644 55.3617 82.3469 55.1705L65.1012 45.3293V44.3669L82.5695 54.3917Z" fill="#EBEBEB"/>
<path d="M65.1012 44.3669L95.4593 26.9431L112.928 36.9568C113.422 37.2767 113.834 37.7091 114.13 38.2186C114.426 38.7281 114.597 39.3003 114.63 39.8886V43.3154C114.655 43.5289 114.622 43.7452 114.534 43.9412C114.446 44.1371 114.306 44.3055 114.129 44.4281L83.7711 61.8518C83.9476 61.7292 84.0875 61.5609 84.1757 61.3649C84.2638 61.1689 84.2971 60.9526 84.2718 60.7392V57.3234C84.2381 56.7348 84.0658 56.1624 83.769 55.653C83.4722 55.1435 83.0593 54.7113 82.5639 54.3917L65.1012 44.3669Z" fill="#E0E0E0"/>
<path d="M83.7766 55.6545C84.0829 56.1591 84.2553 56.7335 84.2773 57.3234V60.7503C84.3026 60.9637 84.2694 61.18 84.1812 61.376C84.093 61.572 83.9531 61.7403 83.7766 61.8629L114.135 44.4392C114.311 44.3166 114.451 44.1483 114.539 43.9523C114.627 43.7563 114.661 43.54 114.635 43.3266V39.8997C114.615 39.3095 114.443 38.7346 114.135 38.2307L83.7766 55.6545Z" fill="#EBEBEB"/>
<path d="M65.1012 42.2529L83.4763 52.7283L113.834 35.3101L95.4593 24.8291L65.1012 42.2529Z" fill="#E0E0E0"/>
<path d="M83.6821 51.9328L65.958 41.7467C66.4174 40.2422 66.3843 38.6303 65.8634 37.1459L83.4763 47.2097C83.4763 47.2097 83.8101 48.339 83.6821 51.9328Z" fill="white"/>
<path d="M82.5695 45.791C83.0642 46.111 83.4762 46.5434 83.7721 47.0529C84.0679 47.5623 84.2391 48.1345 84.2718 48.7228V52.1497C84.2718 53.2289 83.5096 53.6684 82.5695 53.1288L65.1012 43.1151V42.2529L82.3469 52.0829C82.9033 52.4056 83.3706 52.1441 83.3706 51.5266V48.3501C83.352 47.9968 83.2494 47.653 83.0714 47.3473C82.8934 47.0415 82.645 46.7827 82.3469 46.5921L65.1012 36.7398V35.7662L82.5695 45.791Z" fill="#EBEBEB"/>
<path d="M65.1012 35.7662L95.4593 18.348L112.928 28.3617C113.422 28.6817 113.834 29.114 114.13 29.6235C114.426 30.133 114.597 30.7052 114.63 31.2935V34.7204C114.655 34.9337 114.621 35.1498 114.533 35.3457C114.445 35.5416 114.305 35.7099 114.129 35.833L83.7711 53.2512C83.9476 53.1286 84.0875 52.9603 84.1757 52.7643C84.2638 52.5683 84.2971 52.352 84.2718 52.1386V48.7117C84.2391 48.1234 84.0679 47.5512 83.7721 47.0417C83.4762 46.5322 83.0642 46.0999 82.5695 45.7799L65.1012 35.7662Z" fill="#FAFAFA"/>
<path d="M83.7766 47.0539C84.082 47.5589 84.2543 48.1331 84.2773 48.7228V52.1497C84.3026 52.3631 84.2694 52.5794 84.1812 52.7754C84.093 52.9714 83.9531 53.1397 83.7766 53.2623L114.129 35.8275C114.305 35.7044 114.445 35.536 114.533 35.3402C114.621 35.1443 114.654 34.9282 114.63 34.7148V31.3046C114.61 30.7143 114.438 30.1393 114.129 29.6357L83.7766 47.0539Z" fill="#F0F0F0"/>
<path d="M57.3073 18.0977L76.8561 29.3909V66.5805L57.3073 55.2929V18.0977Z" fill="#E0E0E0"/>
<path d="M76.2274 30.0084L57.3127 19.1492C56.1575 20.3776 54.6419 21.2075 52.9846 21.5191L71.7491 32.3283C71.7491 32.3283 72.9507 32.0445 76.2274 30.0084Z" fill="white"/>
<path d="M69.9245 32.2893C70.4874 32.5747 71.1097 32.7234 71.7408 32.7234C72.372 32.7234 72.9943 32.5747 73.5572 32.2893L76.7449 30.4646C77.7463 29.9083 77.7463 28.9514 76.7449 28.3784L58.0972 17.6471L57.3073 18.0977L75.6656 28.6677C75.7959 28.7126 75.9089 28.797 75.9889 28.9092C76.0689 29.0214 76.1119 29.1558 76.1119 29.2935C76.1119 29.4313 76.0689 29.5657 75.9889 29.6779C75.9089 29.79 75.7959 29.8745 75.6656 29.9194L72.7005 31.5883C72.3622 31.7586 71.9888 31.8472 71.6101 31.8472C71.2314 31.8472 70.858 31.7586 70.5197 31.5883L52.1558 21.0517L51.2601 21.5635L69.9245 32.2893Z" fill="#FAFAFA"/>
<path d="M51.2767 21.5635V58.7532L69.9244 69.4511C70.4873 69.7365 71.1096 69.8852 71.7408 69.8852C72.3719 69.8852 72.9942 69.7365 73.5571 69.4511L76.7448 67.6264C76.9516 67.5345 77.1302 67.3891 77.2622 67.2053C77.3942 67.0215 77.4748 66.8058 77.4958 66.5805V29.3909C77.4756 29.6157 77.3952 29.831 77.263 30.014C77.1309 30.1971 76.9519 30.3412 76.7448 30.4312L73.5571 32.2893C72.9933 32.5717 72.3714 32.7188 71.7408 32.7188C71.1101 32.7188 70.4882 32.5717 69.9244 32.2893L51.2767 21.5635Z" fill="#E0E0E0"/>
<path d="M71.738 32.6954C72.3708 32.7075 72.9963 32.5601 73.5572 32.267L76.7449 30.4312C76.9519 30.3412 77.1309 30.1971 77.2631 30.014C77.3952 29.831 77.4756 29.6157 77.4959 29.3909V66.5805C77.4749 66.8058 77.3942 67.0215 77.2622 67.2053C77.1302 67.3891 76.9517 67.5344 76.7449 67.6264L73.5572 69.4511C72.9978 69.7487 72.3715 69.898 71.738 69.885V32.6954Z" fill="#EBEBEB"/>
<path d="M49.313 22.6873L68.8619 33.9805V71.1701L49.313 59.8825V22.6873Z" fill="#EBEBEB"/>
<path d="M68.2333 34.598L49.3186 23.7387C48.1633 24.9671 46.6478 25.797 44.9905 26.1086L63.7438 36.9178C63.7438 36.9178 64.951 36.6341 68.2333 34.598Z" fill="white"/>
<path d="M61.9302 36.8511C62.4932 37.1365 63.1155 37.2852 63.7466 37.2852C64.3778 37.2852 65 37.1365 65.563 36.8511L68.7507 35.0264C69.752 34.47 69.752 33.5132 68.7507 32.9402L50.103 22.2367L49.313 22.6873L67.6714 33.2573C67.8044 33.2994 67.9205 33.3827 68.0029 33.4953C68.0854 33.6078 68.1298 33.7436 68.1298 33.8831C68.1298 34.0226 68.0854 34.1585 68.0029 34.271C67.9205 34.3835 67.8044 34.4669 67.6714 34.509L64.7118 36.1779C64.3736 36.3482 64.0001 36.4368 63.6214 36.4368C63.2428 36.4368 62.8693 36.3482 62.5311 36.1779L44.2005 25.608L43.2826 26.1698L61.9302 36.8511Z" fill="#FAFAFA"/>
<path d="M43.2826 26.1698V63.3594L61.9302 74.0573C62.4932 74.3428 63.1155 74.4915 63.7466 74.4915C64.3778 74.4915 65 74.3428 65.563 74.0573L68.7507 72.2326C68.9575 72.1407 69.136 71.9954 69.268 71.8116C69.4 71.6277 69.4807 71.4121 69.5017 71.1868V33.9582C69.4814 34.1831 69.401 34.3983 69.2689 34.5814C69.1367 34.7644 68.9577 34.9085 68.7507 34.9985L65.563 36.8343C64.9992 37.1168 64.3772 37.2638 63.7466 37.2638C63.116 37.2638 62.4941 37.1168 61.9302 36.8343L43.2826 26.1698Z" fill="#EBEBEB"/>
<path d="M63.7438 37.2961C64.3765 37.3082 65.0021 37.1609 65.5629 36.8678L68.7506 35.0319C68.9624 34.9393 69.1445 34.7901 69.277 34.6007C69.4095 34.4112 69.4872 34.189 69.5016 33.9583V71.1479C69.4806 71.3732 69.4 71.5888 69.268 71.7727C69.136 71.9565 68.9574 72.1018 68.7506 72.1937L65.5629 74.0184C65.0035 74.316 64.3773 74.4654 63.7438 74.4524V37.2961Z" fill="#F0F0F0"/>
<path d="M187.34 44.4559V40.8677C187.368 40.6601 187.448 40.4632 187.574 40.2956C187.7 40.1281 187.866 39.9956 188.058 39.9108L209.754 27.4661C210.272 27.2045 210.843 27.0682 211.423 27.0682C212.003 27.0682 212.575 27.2045 213.092 27.4661L275.444 63.2482C275.635 63.3325 275.802 63.4649 275.928 63.6325C276.054 63.8001 276.134 63.9973 276.161 64.2051V64.2051V67.7933C276.134 68.0011 276.054 68.1983 275.928 68.3659C275.802 68.5335 275.635 68.6658 275.444 68.7502L253.747 81.2005C253.23 81.4621 252.658 81.5983 252.078 81.5983C251.499 81.5983 250.927 81.4621 250.41 81.2005L188.052 45.4128C187.86 45.3285 187.694 45.1961 187.568 45.0285C187.442 44.8609 187.362 44.6637 187.335 44.4559H187.34Z" fill="#F0F0F0"/>
<path d="M275.427 65.1619L253.731 77.6067C253.213 77.8683 252.642 78.0045 252.062 78.0045C251.482 78.0045 250.91 77.8683 250.393 77.6067L188.052 41.8246C187.134 41.2682 187.134 40.4393 188.052 39.9108L209.748 27.4661C210.266 27.2045 210.838 27.0682 211.417 27.0682C211.997 27.0682 212.569 27.2045 213.086 27.4661L275.438 63.2482C276.35 63.7767 276.35 64.6334 275.427 65.1619Z" fill="#FAFAFA"/>
<path d="M252.073 78.0072V81.5954C252.653 81.6036 253.227 81.4679 253.742 81.2005L275.438 68.7557C275.63 68.6714 275.797 68.539 275.922 68.3714C276.048 68.2038 276.128 68.0066 276.156 67.7989V67.7989V64.2051C276.145 64.0609 276.099 63.9216 276.022 63.799C276.273 64.2607 276.083 64.7948 275.438 65.1619L253.742 77.6067C253.23 77.8849 252.655 78.023 252.073 78.0072Z" fill="#E0E0E0"/>
<path d="M249.241 50.8535L230.866 61.3289L200.508 43.9051L218.883 33.4297L249.241 50.8535Z" fill="#E0E0E0"/>
<path d="M230.655 60.5334L248.385 50.3584C247.925 48.8558 247.958 47.2457 248.479 45.7632L230.866 55.827C230.866 55.827 230.527 56.934 230.655 60.5334Z" fill="white"/>
<path d="M231.773 54.3916C231.277 54.7103 230.863 55.1423 230.566 55.6519C230.269 56.1616 230.097 56.7345 230.065 57.3234V60.7503C230.065 61.8296 230.827 62.2635 231.773 61.7239L249.241 51.7102V50.8646L231.995 60.6947C231.439 61.0173 230.972 60.7559 230.972 60.105V56.9284C230.99 56.5751 231.093 56.2314 231.271 55.9256C231.449 55.6199 231.697 55.361 231.995 55.1705L249.213 45.3404V44.378L231.773 54.3916Z" fill="#EBEBEB"/>
<path d="M249.241 44.3669L218.883 26.9431L201.415 36.9568C200.92 37.2767 200.508 37.7091 200.212 38.2186C199.917 38.7281 199.745 39.3003 199.713 39.8886V43.3154C199.687 43.5283 199.72 43.744 199.807 43.9399C199.894 44.1357 200.033 44.3044 200.208 44.4281L230.566 61.8518C230.391 61.7281 230.252 61.5595 230.165 61.3636C230.078 61.1678 230.045 60.9521 230.071 60.7392V57.3234C230.103 56.7352 230.275 56.163 230.57 55.6535C230.866 55.144 231.278 54.7116 231.773 54.3917L249.241 44.3669Z" fill="#E0E0E0"/>
<path d="M230.566 55.6545C230.257 56.1581 230.085 56.7331 230.065 57.3234V60.7503C230.04 60.9632 230.072 61.1789 230.16 61.3747C230.247 61.5706 230.385 61.7392 230.56 61.8629L200.202 44.4392C200.027 44.3155 199.889 44.1468 199.802 43.951C199.714 43.7551 199.682 43.5394 199.707 43.3266V39.8997C199.728 39.3104 199.898 38.736 200.202 38.2307L230.566 55.6545Z" fill="#EBEBEB"/>
<path d="M249.241 42.2529L230.866 52.7283L200.508 35.3101L218.883 24.8291L249.241 42.2529Z" fill="#E0E0E0"/>
<path d="M230.655 51.9328L248.385 41.7467C247.922 40.2426 247.955 38.6298 248.479 37.1459L230.866 47.2097C230.866 47.2097 230.527 48.339 230.655 51.9328Z" fill="white"/>
<path d="M231.767 45.7911C231.273 46.1111 230.861 46.5434 230.565 47.0529C230.269 47.5624 230.098 48.1346 230.065 48.7229V52.1498C230.065 53.229 230.827 53.6685 231.767 53.1289L249.241 43.1152V42.2529L231.995 52.083C231.439 52.4057 230.972 52.1442 230.972 51.5267V48.3501C230.99 47.9968 231.093 47.6531 231.271 47.3473C231.449 47.0416 231.697 46.7827 231.995 46.5922L249.241 36.7398V35.7663L231.767 45.7911Z" fill="#EBEBEB"/>
<path d="M249.241 35.7663L218.883 18.3481L201.415 28.3951C200.919 28.7148 200.507 29.147 200.21 29.6564C199.913 30.1659 199.741 30.7383 199.707 31.3269V34.7538C199.684 34.9671 199.718 35.1827 199.806 35.3784C199.894 35.574 200.033 35.7426 200.208 35.8664L230.566 53.2846C230.39 53.1612 230.251 52.9927 230.163 52.7969C230.075 52.6012 230.041 52.3853 230.065 52.172V48.7451C230.098 48.1568 230.269 47.5846 230.565 47.0751C230.861 46.5657 231.273 46.1333 231.767 45.8133L249.241 35.7663Z" fill="#FAFAFA"/>
<path d="M230.566 47.0539C230.258 47.5578 230.085 48.1327 230.065 48.7228V52.1497C230.041 52.363 230.075 52.5789 230.163 52.7747C230.251 52.9704 230.39 53.1389 230.566 53.2623L200.208 35.8275C200.033 35.7036 199.894 35.5351 199.806 35.3394C199.718 35.1438 199.684 34.9281 199.707 34.7148V31.3046C199.729 30.7147 199.901 30.1403 200.208 29.6357L230.566 47.0539Z" fill="#F0F0F0"/>
<path d="M257.035 18.0977L237.486 29.3909V66.5805L257.035 55.2929V18.0977Z" fill="#E0E0E0"/>
<path d="M238.115 30.0084L257.03 19.1492C258.183 20.3775 259.697 21.2074 261.352 21.5191L242.599 32.3283C242.599 32.3283 241.386 32.0445 238.115 30.0084Z" fill="white"/>
<path d="M244.418 32.2893C243.854 32.5748 243.231 32.7235 242.599 32.7235C241.967 32.7235 241.344 32.5748 240.78 32.2893L237.598 30.4646C236.591 29.9083 236.591 28.9514 237.598 28.3784L256.24 17.6749L257.035 18.1255L238.677 28.6955C238.547 28.7404 238.434 28.8249 238.354 28.9371C238.274 29.0492 238.231 29.1836 238.231 29.3214C238.231 29.4591 238.274 29.5935 238.354 29.7057C238.434 29.8179 238.547 29.9023 238.677 29.9472L241.636 31.6162C241.976 31.7865 242.35 31.8751 242.73 31.8751C243.109 31.8751 243.484 31.7865 243.823 31.6162L262.153 21.0462L263.049 21.558L244.418 32.2893Z" fill="#FAFAFA"/>
<path d="M263.06 21.5635V58.7532L244.418 69.4511C243.854 69.7365 243.231 69.8853 242.599 69.8853C241.967 69.8853 241.344 69.7365 240.78 69.4511L237.598 67.6264C237.391 67.5345 237.212 67.3891 237.08 67.2053C236.948 67.0215 236.868 66.8058 236.847 66.5805V29.3909C236.867 29.6157 236.947 29.831 237.079 30.014C237.212 30.1971 237.391 30.3412 237.598 30.4312L240.78 32.267C241.345 32.5495 241.967 32.6966 242.599 32.6966C243.23 32.6966 243.853 32.5495 244.418 32.267L263.06 21.5635Z" fill="#E0E0E0"/>
<path d="M242.599 32.6954C241.966 32.7061 241.341 32.5589 240.78 32.2671L237.598 30.4312C237.392 30.3405 237.214 30.196 237.083 30.013C236.951 29.83 236.872 29.6152 236.852 29.3909V66.5805C236.873 66.8059 236.954 67.0215 237.086 67.2053C237.218 67.3892 237.396 67.5345 237.603 67.6264L240.785 69.4511C241.345 69.7473 241.971 69.8966 242.604 69.8851L242.599 32.6954Z" fill="#EBEBEB"/>
<path d="M265.029 22.6873L245.481 33.9805V71.1701L265.029 59.8825V22.6873Z" fill="#EBEBEB"/>
<path d="M246.109 34.598L265.024 23.7388C266.178 24.9659 267.691 25.7956 269.346 26.1087L250.593 36.9179C250.593 36.9179 249.38 36.6341 246.109 34.598Z" fill="white"/>
<path d="M252.429 36.8511C251.865 37.1365 251.242 37.2853 250.61 37.2853C249.978 37.2853 249.354 37.1365 248.791 36.8511L245.608 35.0264C244.602 34.47 244.602 33.5132 245.608 32.9402L264.256 22.2367L265.046 22.6873L246.688 33.2573C246.557 33.3022 246.444 33.3866 246.364 33.4988C246.285 33.611 246.242 33.7454 246.242 33.8831C246.242 34.0209 246.285 34.1553 246.364 34.2675C246.444 34.3796 246.557 34.4641 246.688 34.509L249.647 36.1779C249.987 36.3482 250.361 36.4369 250.74 36.4369C251.12 36.4369 251.494 36.3482 251.834 36.1779L270.164 25.608L271.06 26.1198L252.429 36.8511Z" fill="#FAFAFA"/>
<path d="M271.054 26.1699V63.3595L252.429 74.0407C251.865 74.3262 251.242 74.4749 250.61 74.4749C249.978 74.4749 249.355 74.3262 248.791 74.0407L245.609 72.216C245.402 72.1241 245.223 71.9787 245.091 71.7949C244.959 71.6111 244.879 71.3955 244.858 71.1701V33.9583C244.878 34.1831 244.958 34.3984 245.09 34.5814C245.223 34.7645 245.401 34.9086 245.609 34.9986L248.791 36.8344C249.355 37.1169 249.978 37.264 250.61 37.264C251.241 37.264 251.864 37.1169 252.429 36.8344L271.054 26.1699Z" fill="#EBEBEB"/>
<path d="M250.593 37.2961C249.961 37.3068 249.335 37.1596 248.774 36.8678L245.592 35.0319C245.38 34.9393 245.198 34.7901 245.065 34.6007C244.933 34.4112 244.855 34.189 244.841 33.9583V71.1479C244.862 71.3732 244.942 71.5888 245.074 71.7727C245.206 71.9565 245.385 72.1018 245.592 72.1937L248.774 74.0184C249.334 74.3146 249.96 74.4639 250.593 74.4524V37.2961Z" fill="#F0F0F0"/>
<path d="M152.576 98.5964L149.906 93.5896L152.059 87.3644V83.5648L145.472 87.3644V91.1696L148.304 96.0708C148.346 96.1474 148.413 96.208 148.493 96.2432V96.2432L152.576 98.5964Z" fill="#EC5863"/>
<path opacity="0.2" d="M152.576 98.5964L149.906 93.5896L152.059 87.3644V83.5648L145.472 87.3644V91.1696L148.304 96.0708C148.346 96.1474 148.413 96.208 148.493 96.2432V96.2432L152.576 98.5964Z" fill="black"/>
<path d="M168.303 53.3347C168.266 52.6492 168.068 51.9821 167.725 51.3876C167.382 50.7931 166.903 50.288 166.328 49.9133L164.72 48.9787C164.108 48.6688 163.432 48.5073 162.746 48.5073C162.059 48.5073 161.383 48.6688 160.771 48.9787L136.12 63.2371C135.546 63.612 135.068 64.1173 134.726 64.7118C134.384 65.3064 134.187 65.9733 134.151 66.6584V93.7787C134.187 94.4637 134.384 95.1305 134.726 95.7249C135.069 96.3194 135.546 96.8248 136.12 97.2L137.728 98.1291C138.34 98.439 139.017 98.6005 139.703 98.6005C140.389 98.6005 141.066 98.439 141.678 98.1291L149.605 93.5451L152.431 98.4406C152.472 98.5098 152.532 98.5659 152.604 98.6024C152.675 98.6389 152.756 98.6542 152.836 98.6466C152.916 98.6391 152.992 98.6089 153.055 98.5596C153.118 98.5103 153.167 98.4439 153.194 98.3683L156.181 89.7454L166.328 83.8708C166.903 83.4958 167.382 82.9906 167.725 82.3962C168.068 81.8017 168.266 81.1348 168.303 80.4494V53.3347Z" fill="#EC5863"/>
<path opacity="0.2" d="M134.151 93.7843C134.187 94.4692 134.384 95.136 134.726 95.7305C135.069 96.325 135.546 96.8304 136.12 97.2056L137.728 98.1347C138.285 98.4144 138.894 98.5729 139.517 98.5997C140.139 98.6266 140.76 98.5212 141.339 98.2904C140.41 98.6409 139.703 98.118 139.703 96.9942V69.8683C139.721 69.1844 139.912 68.5163 140.259 67.9268L134.696 64.7169C134.349 65.3082 134.157 65.9783 134.14 66.664L134.151 93.7843Z" fill="black"/>
<path opacity="0.5" d="M168.236 52.7728C168.008 51.9328 167.246 51.6602 166.334 52.2165L141.678 66.4748C141.092 66.8349 140.612 67.3435 140.287 67.9491L134.724 64.7447C135.049 64.1392 135.529 63.6305 136.115 63.2705L160.771 48.9788C161.384 48.6714 162.06 48.5114 162.746 48.5114C163.431 48.5114 164.107 48.6714 164.72 48.9788L166.334 49.9134C166.829 50.2352 167.253 50.6548 167.58 51.1466C167.908 51.6383 168.131 52.1917 168.236 52.7728V52.7728Z" fill="white"/>
<path d="M145.695 76.5941C145.713 74.9154 146.065 73.2571 146.729 71.7153V71.7153V71.6819C147.491 69.9184 148.604 68.4274 149.845 67.6987C151.975 66.4414 153.739 68.9893 154.028 71.9934C154.284 68.6555 156.025 64.0604 158.15 62.8142C159.391 62.0855 160.515 62.2579 161.288 63.1258C161.945 63.8768 162.351 65.1285 162.362 66.7696C162.362 71.8432 159.33 76.4495 156.799 81.295L154.017 85.9736L151.358 84.4771C148.799 82.6747 145.717 81.6733 145.695 76.5941Z" fill="#FAFAFA"/>
<path fill-rule="evenodd" clip-rule="evenodd" d="M196.534 171.421C196.546 171.69 196.143 171.75 195.921 171.78C195.454 171.844 195.014 171.824 194.838 171.625C194.653 171.416 195.118 171.06 195.598 170.984C195.964 170.926 196.521 171.107 196.534 171.421Z" fill="white" stroke="#009900" stroke-width="3" stroke-linecap="round"/>
<path d="M192.633 172.679C192.652 172.639 194.347 172.549 195.099 172.018C195.69 171.6 195.44 170.661 195.741 170.619C195.948 170.59 196.382 172.842 193.096 173.03C193.04 173.033 192.647 172.665 192.633 172.679Z" fill="white"/>
<path d="M207.055 155.748C208.346 154.518 211.697 151.771 212.263 151.199C212.381 151.838 212.346 152.024 212.267 152.166C211.775 153.048 207.718 156.186 206.998 156.67C207.045 156.179 207.051 156.029 207.055 155.748V155.748Z" fill="white"/>
<path d="M211.126 154.327C211.202 154.437 212.162 153.134 212.189 153.179C212.527 154.474 213.278 156.478 213.829 157.062C214.41 157.678 216.304 157.943 215.154 160.974C215.287 158.531 213.598 158.099 213.566 157.932C216.096 168.578 215.676 170.366 214.723 172.257C214.377 165.342 213.363 161.269 211.126 154.327L211.126 154.327Z" fill="white"/>
<path d="M201.174 154.64C201.318 156.008 201.206 156.848 202.064 156.812C202.923 156.777 202.411 155.283 202.351 154.416C202.363 154.432 202.807 153.852 202.849 153.847C203.179 156.051 203.275 156.722 203.862 156.638C204.694 156.52 204.229 155.785 203.933 154.469C203.956 154.477 204.371 153.686 204.342 153.669C204.616 154.269 205.228 154.775 205.209 154.743C205.238 154.761 204.987 154.872 204.775 154.896C204.895 155.725 205.576 157.421 204.018 157.6C203.522 157.657 203.326 157.569 202.93 157.259C202.597 157.773 202.187 157.925 201.779 157.961C200.503 158.073 200.414 154.801 201.174 154.64V154.64Z" fill="white"/>
<path fill-rule="evenodd" clip-rule="evenodd" d="M195.971 155.331C195.124 156.17 195.961 156.488 196.409 156.501C197.166 155.661 197.289 155.147 197.081 154.976C196.82 154.763 196.437 154.869 195.971 155.331V155.331ZM195.427 155.083C194.443 156.344 195.284 157.104 195.842 157.131C195.365 157.595 194.588 158.222 192.619 159.534C192.875 159.46 193.293 159.588 193.529 159.454C194.813 158.72 196.14 157.72 196.727 157.121C196.972 157.105 197.348 157.136 197.717 157.309C197.586 156.775 197.921 156.567 197.189 156.572C197.888 155.681 197.942 154.069 197.087 154.202C196.432 154.304 195.763 154.651 195.427 155.083V155.083Z" fill="white"/>
<path d="M201.53 149.943C201.504 149.858 201.926 148.873 202.069 148.767C203.509 151.075 202.785 152.779 202.346 153.434C202.326 151.145 201.781 150.269 201.53 149.943L201.53 149.943V149.943Z" fill="white"/>
<path d="M208.149 167.025C207.761 166.381 207.084 166.223 206.862 166.306C206.725 166.357 206.591 166.588 206.898 167.042C205.484 166.219 205.942 165.587 207.389 165.722C207.62 164.229 208.419 164.487 208.849 165.42C208.155 165.233 208.109 165.433 208.067 165.53C207.949 165.804 208.041 165.945 208.731 167.043C208.922 167.347 209.252 167.77 208.808 168.232C208.65 167.652 208.469 167.607 208.149 167.025V167.025ZM206.107 164.815C206.021 164.48 206.177 164.407 206.342 164.376C206.555 164.335 206.652 164.567 206.69 164.514C206.797 164.365 206.757 164.259 206.237 163.736C205.77 163.266 205.499 162.731 205.546 162.466C205.749 161.314 205.416 162.275 206.248 163.175C206.568 163.521 207.444 164.149 206.954 164.881C206.749 165.186 206.204 165.195 206.107 164.815V164.815Z" fill="white"/>
<path d="M200.77 168.058C200.979 167.336 201.593 167.009 201.828 167.032C201.974 167.046 202.163 167.236 201.982 167.753C203.138 166.595 202.533 166.102 201.17 166.603C200.563 165.22 199.857 165.674 199.68 166.686C200.304 166.327 200.399 166.509 200.465 166.592C200.649 166.826 200.596 166.986 200.211 168.225C200.105 168.567 199.894 169.061 200.442 169.393C200.446 168.792 200.609 168.702 200.77 168.058V168.058ZM202.176 165.397C202.173 165.052 202.003 165.022 201.836 165.034C201.62 165.049 201.585 165.298 201.535 165.257C201.393 165.14 201.405 165.027 201.773 164.389C202.104 163.814 202.228 163.228 202.115 162.984C201.624 161.922 202.191 162.766 201.619 163.848C201.398 164.265 200.713 165.097 201.374 165.679C201.65 165.922 202.18 165.79 202.176 165.397V165.397Z" fill="white"/>
<path d="M190.538 164.59C191.102 164.545 190.023 168.475 192.186 168.783C194.4 169.099 195.707 161.081 197.745 161.469C200.554 162.004 195.635 173.271 201.667 172.589C205.916 172.107 204.021 169.621 202.906 160.492C202.855 160.485 203.694 159.292 203.773 159.31C205.873 168.588 205.583 172.342 208.972 171.865C214.532 171.083 208.848 163.304 208.681 161.206C208.666 161.309 209.654 158.131 209.671 158.751C210.338 161.867 211.677 159.974 212.781 165.055C211.394 164.206 212.581 163.677 210.479 162.121C211.901 166.191 214.577 172.698 210.568 174.203C208.399 175.018 207.23 174.493 205.472 172.213C204.81 175.206 202.618 175.39 201.217 175.28C194.546 174.759 199.335 164.105 197.274 163.976C195.29 163.851 195.503 171.396 192.336 170.904C189.072 170.396 189.974 164.636 190.538 164.59V164.59Z" fill="white"/>
</svg>
